<svg width="1191" height="842" viewBox="0 0 1191 842" fill="none" xmlns="http://www.w3.org/2000/svg">
<g id="54">
<rect width="1191" height="842" fill="#1F2024"/>
<path id="Colours" d="M465.825 456.672C477.825 456.672 487.041 451.104 492.897 443.808L483.009 435.264C478.881 440.352 472.929 443.904 465.825 443.904C453.633 443.904 445.185 434.784 445.185 422.112C445.185 408.48 454.017 399.84 465.633 399.84C472.641 399.84 478.401 403.104 482.817 408.48L492.801 400.128C485.505 391.2 475.425 386.976 465.633 386.976C443.553 386.976 431.073 402.624 431.073 422.112C431.073 444.576 446.817 456.672 465.825 456.672ZM523.298 456.864C537.89 456.864 548.162 446.88 548.162 432.576C548.162 418.176 537.89 408.384 523.298 408.384C508.322 408.384 498.338 418.56 498.338 432.576C498.338 446.592 508.322 456.864 523.298 456.864ZM523.298 445.536C516.098 445.536 511.106 439.872 511.106 432.576C511.106 425.184 516.002 419.616 523.298 419.616C530.21 419.616 535.394 424.896 535.394 432.576C535.394 440.256 530.018 445.536 523.298 445.536ZM557.544 456H570.12V385.344H557.544V456ZM604.53 456.864C619.122 456.864 629.394 446.88 629.394 432.576C629.394 418.176 619.122 408.384 604.53 408.384C589.554 408.384 579.57 418.56 579.57 432.576C579.57 446.592 589.554 456.864 604.53 456.864ZM604.53 445.536C597.33 445.536 592.338 439.872 592.338 432.576C592.338 425.184 597.234 419.616 604.53 419.616C611.442 419.616 616.626 424.896 616.626 432.576C616.626 440.256 611.25 445.536 604.53 445.536ZM654.616 456.864C659.896 456.864 664.888 454.656 668.44 450.336L668.632 450.432V456H681.304V409.056H668.632V431.904C668.632 440.928 663.736 445.536 658.264 445.536C652.408 445.536 649.816 442.656 649.816 434.112V409.056H637.336V437.376C637.336 451.68 644.44 456.864 654.616 456.864ZM692.362 456H704.938V434.304C704.938 427.2 709.066 422.016 716.842 422.016C717.61 422.016 718.858 422.016 720.202 422.112V408.384H719.242C713.77 408.384 708.682 411.072 705.13 415.872H704.938V409.056H692.362V456ZM742.193 456.864C754.481 456.864 760.337 450.528 760.337 442.272C760.337 432.96 754.385 430.752 744.209 427.008C739.601 425.28 737.297 423.936 737.297 422.016C737.297 419.52 739.793 418.56 741.713 418.56C745.169 418.56 749.393 420.096 752.945 423.552L759.089 414.24C753.713 410.112 748.433 408.384 742.001 408.384C732.305 408.384 725.009 413.856 725.009 422.304C725.009 431.424 731.729 435.072 739.505 437.664C745.553 439.68 747.953 440.736 747.953 442.752C747.953 445.056 745.937 446.592 742.289 446.592C737.105 446.592 733.073 444.768 729.233 441.216L723.185 449.952C728.273 454.368 734.705 456.864 742.193 456.864Z" fill="white"/>
<path id="PAGE 53" d="M1103.23 55H1104.45V51.206H1106.49C1108.57 51.206 1109.99 50.24 1109.99 48.14C1109.99 46.376 1109.03 45.06 1106.7 45.06H1103.23V55ZM1104.45 50.1V46.166H1106.58C1107.91 46.166 1108.73 46.838 1108.73 48.112C1108.73 49.26 1108.03 50.1 1106.38 50.1H1104.45ZM1109.89 55H1111.17L1112.05 52.578H1116.49L1117.38 55H1118.66L1114.88 45.06H1113.66L1109.89 55ZM1112.44 51.514L1114.25 46.53H1114.28L1116.11 51.514H1112.44ZM1124.13 55.07C1125.65 55.07 1127.07 54.594 1127.99 53.81V49.876H1123.89V50.982H1126.77V53.124C1126.03 53.684 1125.12 53.95 1124.13 53.95C1121.9 53.95 1120.43 52.298 1120.43 50.044C1120.43 47.664 1121.98 46.124 1124.07 46.124C1125.23 46.124 1126.21 46.502 1127.01 47.272L1127.86 46.516C1126.81 45.424 1125.44 44.962 1124.08 44.962C1121.09 44.962 1119.16 47.09 1119.16 50.044C1119.16 53.124 1121.27 55.07 1124.13 55.07ZM1130.06 55H1136.44V53.894H1131.28V50.604H1135.27V49.498H1131.28V46.166H1136.15V45.06H1130.06V55ZM1144.59 48.896C1144.2 48.896 1143.63 48.994 1143.12 49.176L1143.28 46.474H1147.25V45.382H1142.17L1141.89 50.24L1142.58 50.45C1143.07 50.072 1143.64 49.918 1144.27 49.918C1145.45 49.918 1146.5 50.646 1146.5 51.948C1146.5 53.138 1145.6 53.992 1144.26 53.992C1143.28 53.992 1142.47 53.53 1142.03 52.83L1141.15 53.488C1141.82 54.496 1143.03 55.084 1144.36 55.084C1146.3 55.084 1147.7 53.824 1147.7 51.962C1147.7 50.03 1146.3 48.896 1144.59 48.896ZM1151.86 55.084C1153.63 55.084 1154.96 54.02 1154.96 52.424C1154.96 51.276 1154.32 50.408 1153.3 50.016V49.974C1154.21 49.582 1154.71 48.714 1154.71 47.818C1154.71 46.222 1153.4 45.298 1151.76 45.298C1150.37 45.298 1149.39 45.942 1148.89 46.824L1149.84 47.356C1150.22 46.796 1150.78 46.39 1151.73 46.39C1152.74 46.39 1153.52 47.02 1153.52 47.972C1153.52 48.742 1153.02 49.512 1151.79 49.512H1150.85V50.52H1151.65C1153.07 50.52 1153.76 51.332 1153.76 52.256C1153.76 53.306 1152.89 53.992 1151.77 53.992C1150.65 53.992 1149.92 53.488 1149.59 52.718L1148.57 53.18C1149.04 54.286 1150.22 55.084 1151.86 55.084Z" fill="#B7B7B7"/>
</g>
</svg>
