<svg width="1191" height="842" viewBox="0 0 1191 842" fill="none" xmlns="http://www.w3.org/2000/svg">
<g id="62">
<rect width="1191" height="842" fill="#1F2024"/>
<path id="Photography" d="M318.438 456H331.782V432.672H342.342C357.318 432.672 367.398 425.472 367.398 410.496C367.398 397.44 360.198 387.84 343.686 387.84H318.438V456ZM331.782 420.768V399.84H341.574C349.35 399.84 353.382 403.968 353.382 410.304C353.382 416.544 349.35 420.768 340.902 420.768H331.782ZM375.948 456H388.524V432.288C388.524 423.84 392.748 419.616 399.468 419.616C405.42 419.616 408.588 422.496 408.588 431.04V456H421.164V427.872C421.164 413.472 413.964 408.384 403.98 408.384C397.836 408.384 392.46 410.496 388.62 414.72H388.524V385.344H375.948V456ZM454.167 456.864C468.759 456.864 479.031 446.88 479.031 432.576C479.031 418.176 468.759 408.384 454.167 408.384C439.191 408.384 429.207 418.56 429.207 432.576C429.207 446.592 439.191 456.864 454.167 456.864ZM454.167 445.536C446.967 445.536 441.975 439.872 441.975 432.576C441.975 425.184 446.871 419.616 454.167 419.616C461.079 419.616 466.263 424.896 466.263 432.576C466.263 440.256 460.887 445.536 454.167 445.536ZM502.332 456.864C508.668 456.864 511.74 455.52 514.716 453.888L511.548 443.808C509.436 444.864 507.132 445.44 505.596 445.44C502.62 445.44 501.564 443.52 501.564 439.392V419.52H514.236V409.056H501.564V392.448L488.988 393.792V409.056H483.42V419.52H488.988V441.216C488.988 451.776 494.268 456.864 502.332 456.864ZM542.242 456.864C556.834 456.864 567.106 446.88 567.106 432.576C567.106 418.176 556.834 408.384 542.242 408.384C527.266 408.384 517.282 418.56 517.282 432.576C517.282 446.592 527.266 456.864 542.242 456.864ZM542.242 445.536C535.042 445.536 530.05 439.872 530.05 432.576C530.05 425.184 534.946 419.616 542.242 419.616C549.154 419.616 554.338 424.896 554.338 432.576C554.338 440.256 548.962 445.536 542.242 445.536ZM597.128 475.776C615.272 475.776 621.704 465.312 621.704 450.624V409.056H609.128V413.952H608.936C605.096 410.208 600.008 408.384 594.824 408.384C582.344 408.384 573.128 418.272 573.128 432.096C573.128 445.728 582.632 455.136 595.496 455.136C601.064 455.136 605.768 453.216 609.128 449.76H609.32V454.464C609.32 460.032 604.904 464.832 596.168 464.832C590.024 464.832 585.512 463.008 580.904 460.416L577.928 471.072C583.496 474.24 589.928 475.776 597.128 475.776ZM597.8 443.808C591.08 443.808 585.896 439.104 585.896 431.712C585.896 424.608 590.792 419.712 597.8 419.712C604.52 419.712 609.608 424.512 609.608 431.616C609.608 438.72 604.712 443.808 597.8 443.808ZM632.606 456H645.182V434.304C645.182 427.2 649.31 422.016 657.086 422.016C657.854 422.016 659.102 422.016 660.446 422.112V408.384H659.486C654.014 408.384 648.926 411.072 645.374 415.872H645.182V409.056H632.606V456ZM686.011 456.864C692.155 456.864 696.859 454.56 700.123 450.336L700.315 450.432V456H712.315V409.056H699.739V414.432L699.547 414.528C696.187 410.496 691.195 408.384 685.723 408.384C673.147 408.384 663.643 418.464 663.643 432.672C663.643 447.168 673.147 456.864 686.011 456.864ZM688.411 445.536C681.307 445.536 676.411 440.256 676.411 432.768C676.411 424.704 681.595 419.616 688.411 419.616C695.131 419.616 700.315 425.184 700.315 432.768C700.315 440.448 694.843 445.536 688.411 445.536ZM723.213 475.008H735.789V450.816L735.981 450.72C739.245 454.656 743.853 456.864 749.709 456.864C762.765 456.864 772.269 447.168 772.269 432.672C772.269 418.464 762.765 408.384 750.093 408.384C744.333 408.384 739.341 410.496 735.981 414.432H735.789V409.056H723.213V475.008ZM747.501 445.536C740.589 445.536 735.213 440.448 735.213 432.768C735.213 425.184 740.205 419.616 747.405 419.616C754.125 419.616 759.501 424.704 759.501 432.768C759.501 440.256 754.509 445.536 747.501 445.536ZM781.125 456H793.701V432.288C793.701 423.84 797.925 419.616 804.645 419.616C810.597 419.616 813.765 422.496 813.765 431.04V456H826.341V427.872C826.341 413.472 819.141 408.384 809.157 408.384C803.013 408.384 797.637 410.496 793.797 414.72H793.701V385.344H781.125V456ZM840.39 475.008H853.158L878.406 409.056H865.638L854.982 437.856H854.79L843.366 409.056H829.926L848.742 453.12L840.39 475.008Z" fill="white"/>
<path id="PAGE 62" d="M1103.23 55H1104.45V51.206H1106.49C1108.57 51.206 1109.99 50.24 1109.99 48.14C1109.99 46.376 1109.03 45.06 1106.7 45.06H1103.23V55ZM1104.45 50.1V46.166H1106.58C1107.91 46.166 1108.73 46.838 1108.73 48.112C1108.73 49.26 1108.03 50.1 1106.38 50.1H1104.45ZM1109.89 55H1111.17L1112.05 52.578H1116.49L1117.38 55H1118.66L1114.88 45.06H1113.66L1109.89 55ZM1112.44 51.514L1114.25 46.53H1114.28L1116.11 51.514H1112.44ZM1124.13 55.07C1125.65 55.07 1127.07 54.594 1127.99 53.81V49.876H1123.89V50.982H1126.77V53.124C1126.03 53.684 1125.12 53.95 1124.13 53.95C1121.9 53.95 1120.43 52.298 1120.43 50.044C1120.43 47.664 1121.98 46.124 1124.07 46.124C1125.23 46.124 1126.21 46.502 1127.01 47.272L1127.86 46.516C1126.81 45.424 1125.44 44.962 1124.08 44.962C1121.09 44.962 1119.16 47.09 1119.16 50.044C1119.16 53.124 1121.27 55.07 1124.13 55.07ZM1130.06 55H1136.44V53.894H1131.28V50.604H1135.27V49.498H1131.28V46.166H1136.15V45.06H1130.06V55ZM1145.08 48.938C1144.16 48.938 1143.32 49.26 1142.72 49.792C1143.26 47.692 1144.86 46.53 1146.61 46.082L1146.26 45.088C1143.73 45.55 1141.37 47.902 1141.37 51.318C1141.37 53.6 1142.84 55.084 1144.75 55.084C1146.67 55.084 1148.08 53.754 1148.08 51.99C1148.08 50.072 1146.82 48.938 1145.08 48.938ZM1144.82 53.992C1143.54 53.992 1142.52 52.956 1142.52 51.444V51.36C1142.96 50.66 1143.75 50.016 1144.82 50.016C1146.08 50.016 1146.9 50.814 1146.9 51.976C1146.9 53.068 1146.08 53.992 1144.82 53.992ZM1149.01 55H1155.06V53.922H1150.8L1150.79 53.88L1153.29 51.36C1154.48 50.156 1154.94 49.218 1154.94 48.14C1154.94 46.362 1153.54 45.312 1152 45.312C1150.51 45.312 1149.54 46.068 1149.01 47.132L1149.88 47.734C1150.32 46.866 1151.02 46.418 1151.93 46.418C1153 46.418 1153.74 47.202 1153.74 48.266C1153.74 49.218 1153.1 49.988 1152.28 50.828L1148.99 54.188L1149.01 55Z" fill="#B7B7B7"/>
</g>
</svg>
